<svg xmlns="http://www.w3.org/2000/svg" viewBox="0 0 160 160">
<defs>
  <linearGradient id="g" x1="0" y1="0" x2="1" y2="1">
    <stop offset="0" stop-color="#f1d8cb"/>
    <stop offset=".58" stop-color="#d6a08f"/>
    <stop offset="1" stop-color="#aa7468"/>
  </linearGradient>
  <filter id="soft" x="-40%" y="-40%" width="180%" height="180%">
    <feGaussianBlur stdDeviation="1.1" result="b"/>
    <feMerge><feMergeNode in="b"/><feMergeNode in="SourceGraphic"/></feMerge>
  </filter>
</defs>
<g fill="none" stroke="url(#g)" stroke-linecap="round" stroke-linejoin="round" filter="url(#soft)">
  <path d="M67 44c6-2 11-7 13-14 4 6 5 12 2 18 6-1 12 0 17 4-6 5-13 7-20 5" stroke-width="3"/>
  <path d="M79 57c-16 5-29 16-35 30-6 14-4 27 6 36 10 9 25 9 39 3 17-8 29-24 30-41 1-14-8-25-21-29-7-2-13-1-19 1Z" stroke-width="4"/>
  <path d="M64 70c-10 8-16 18-18 29" stroke-width="2" opacity=".72"/>
</g>
</svg>