<svg xmlns="http://www.w3.org/2000/svg" viewBox="0 0 160 160">

<defs>
  <linearGradient id="gold" x1="0" y1="0" x2="1" y2="1">
    <stop offset="0" stop-color="#f9e4d4"/>
    <stop offset=".48" stop-color="#e9b99d"/>
    <stop offset="1" stop-color="#b77a69"/>
  </linearGradient>
  <filter id="glow" x="-80%" y="-80%" width="260%" height="260%">
    <feGaussianBlur stdDeviation="3.8" result="b"/>
    <feMerge><feMergeNode in="b"/><feMergeNode in="SourceGraphic"/></feMerge>
  </filter>
  <radialGradient id="bg" cx="50%" cy="45%" r="60%">
    <stop offset="0" stop-color="#17110e"/>
    <stop offset="1" stop-color="#080808"/>
  </radialGradient>
</defs>
<circle cx="80" cy="80" r="52" fill="url(#bg)" stroke="url(#gold)" stroke-width="1.8" opacity=".98" filter="url(#glow)"/>
<g fill="none" stroke="url(#gold)" stroke-linejoin="round" filter="url(#glow)">
  <path d="M91 53c8 9 12 16 12 23 0 8-5 13-12 13s-12-5-12-13c0-7 4-14 12-23Z" stroke-width="2.8"/>
  <path d="M67 69c7 8 10 14 10 20 0 7-4 11-10 11s-10-4-10-11c0-6 3-12 10-20Z" stroke-width="2.5"/>
  <path d="M94 91c6 7 9 12 9 17 0 6-4 10-9 10s-9-4-9-10c0-5 3-10 9-17Z" stroke-width="2.3"/>
</g>
</svg>