<svg xmlns="http://www.w3.org/2000/svg" viewBox="0 0 120 120">
<defs><linearGradient id="s" x1="0" y1="0" x2="1" y2="1"><stop stop-color="#f0d6ca"/><stop offset="1" stop-color="#c98e82"/></linearGradient></defs>
<circle cx="60" cy="60" r="53" fill="#090909" stroke="#c79b8c" stroke-width="2"/>
<path d="M58 34c5 1 10-1 14-5 2 5 0 10-4 14" fill="none" stroke="#b9a56e" stroke-width="3.5" stroke-linecap="round"/>
<path d="M61 41c-10 2-20 8-27 18-8 12-8 24 0 32 8 8 21 8 32 3 14-6 25-19 25-33 0-13-11-22-23-21-2 0-5 0-7 1Z" fill="none" stroke="url(#s)" stroke-width="4" stroke-linecap="round" stroke-linejoin="round"/>
<path d="M47 52c-8 7-13 17-13 27" fill="none" stroke="#f4ded5" stroke-width="2.2" stroke-linecap="round" opacity=".8"/>
</svg>